<?xml version="1.0" standalone="no"?>
<!DOCTYPE svg PUBLIC "-//W3C//DTD SVG 20010904//EN"
 "http://www.w3.org/TR/2001/REC-SVG-20010904/DTD/svg10.dtd">
<svg version="1.0" xmlns="http://www.w3.org/2000/svg"
 width="16.000000pt" height="16.000000pt" viewBox="0 0 16.000000 16.000000"
 preserveAspectRatio="xMidYMid meet">
<metadata>
Created by potrace 1.16, written by Peter Selinger 2001-2019
</metadata>
<g transform="translate(0.000000,16.000000) scale(0.100000,-0.100000)"
fill="#000000" stroke="none">
<path d="M0 140 c0 -22 1 -23 24 -14 23 9 20 34 -4 34 -13 0 -20 -7 -20 -20z"/>
<path d="M60 153 c0 -5 -14 -24 -30 -43 -22 -25 -30 -45 -30 -72 l0 -38 80 0
80 0 0 80 0 80 -50 0 c-27 0 -50 -3 -50 -7z m90 -61 c0 -35 -51 -85 -82 -80
-18 2 -23 9 -23 33 0 26 4 30 32 33 21 2 34 10 38 23 10 29 35 24 35 -9z"/>
</g>
</svg>
